HIERARCHY
ROOT hip
{
	OFFSET 0.000000 0.000000 0.000000 
	CHANNELS 6 Xposition Yposition Zposition Xrotation Zrotation Yrotation
	JOINT abdomen
	{
		OFFSET 0.000000 3.402643 0.000000 
		CHANNELS 3 Xrotation Zrotation Yrotation
		JOINT chest
		{
			OFFSET 0.000000 8.438565 -0.680529 
			CHANNELS 3 Xrotation Zrotation Yrotation
			JOINT neck
			{
				OFFSET 0.000000 10.207942 -0.272212 
				CHANNELS 3 Xrotation Zrotation Yrotation
				JOINT head
				{
					OFFSET 0.000000 3.130431 0.000000 
					CHANNELS 3 Xrotation Zrotation Yrotation
					End Site
					{
						OFFSET 0.000000 3.130435 0.000000 
					}
				}
			}
			JOINT lCollar
			{
				OFFSET 3.470700 6.669187 -0.816635 
				CHANNELS 3 Zrotation Yrotation Xrotation
				JOINT lShldr
				{
					OFFSET 3.198488 0.000000 0.000000 
					CHANNELS 3 Zrotation Yrotation Xrotation
					JOINT lForeArm
					{
						OFFSET 10.139888 0.000000 0.000000 
						CHANNELS 3 Yrotation Zrotation Xrotation
						JOINT lHand
						{
							OFFSET 8.370511 0.000000 0.000000 
							CHANNELS 3 Zrotation Yrotation Xrotation
							End Site
							{
								OFFSET 4.083176 0.000000 0.000000 
							}
						}
					}
				}
			}
			JOINT rCollar
			{
				OFFSET -3.470700 6.669187 -0.816635 
				CHANNELS 3 Zrotation Yrotation Xrotation
				JOINT rShldr
				{
					OFFSET -3.198488 0.000000 0.000000 
					CHANNELS 3 Zrotation Yrotation Xrotation
					JOINT rForeArm
					{
						OFFSET -10.139888 0.000000 0.000000 
						CHANNELS 3 Yrotation Zrotation Xrotation
						JOINT rHand
						{
							OFFSET -8.370511 0.000000 0.000000 
							CHANNELS 3 Zrotation Yrotation Xrotation
							End Site
							{
								OFFSET -4.083176 0.000000 0.000000 
							}
						}
					}
				}
			}
		}
	}
	JOINT lThigh
	{
		OFFSET 5.308129 -1.633274 1.361059 
		CHANNELS 3 Xrotation Zrotation Yrotation
		JOINT lShin
		{
			OFFSET -2.041588 -20.007561 0.000000 
			CHANNELS 3 Xrotation Zrotation Yrotation
			JOINT lFoot
			{
				OFFSET 0.000000 -19.190928 -1.224953 
				CHANNELS 3 Xrotation Yrotation Zrotation
				End Site
				{
					OFFSET 0.000000 -2.449906 4.627600 
				}
			}
		}
	}
	JOINT rThigh
	{
		OFFSET -5.308129 -1.633274 1.361059 
		CHANNELS 3 Xrotation Zrotation Yrotation
		JOINT rShin
		{
			OFFSET 2.041588 -20.007561 0.000000 
			CHANNELS 3 Xrotation Zrotation Yrotation
			JOINT rFoot
			{
				OFFSET 0.000000 -19.190928 -1.224953 
				CHANNELS 3 Xrotation Yrotation Zrotation
				End Site
				{
					OFFSET 0.000000 -2.449906 4.627600 
				}
			}
		}
	}
}
MOTION
Frames: 8
Frame Time: 0.016667
-5.078053 10.751347 42.075775 80.933167 9.540617 34.907330 31.429228 -4.490755 -16.408100 -1.924580 -0.194408 -8.134800 -3.785950 8.490283 -0.214622 -5.881144 -10.911171 50.630322 -2.313119 -17.692722 0.579731 -28.941950 -17.212057 4.337934 -145.481689 5.000000 45.000000 -9.394325 6.560876 10.302094 -3.512031 9.664292 -0.440017 26.946835 -8.246410 -1.899137 150.000000 -5.000000 45.000000 -3.131726 -30.000000 -1.388528 -39.812405 39.704617 5.703446 134.430130 3.606394 -3.484002 -0.965547 0.024245 -10.684604 21.675179 -17.309210 6.535288 31.249899 9.984238 8.174252 -5.124619 -15.715905 14.735471 
-5.125291 10.687993 42.109627 81.017570 9.604683 34.915459 31.397648 -4.763465 -16.562613 -1.837148 -0.087473 -8.261728 -3.314574 8.735064 -0.162261 -5.822284 -10.944833 50.740395 -1.988124 -17.929892 0.505637 -28.567148 -16.629299 3.975418 -145.559280 5.000000 45.000000 -9.597745 6.531359 9.825397 -3.580176 9.967270 -0.465500 26.964130 -8.646797 -1.948952 150.000000 -5.000000 45.000000 -3.580260 -30.000000 -1.849829 -39.213501 39.556366 6.872406 135.714310 3.622630 -3.366161 -0.412192 0.079405 -11.427782 21.930424 -17.760160 7.018132 29.374191 9.974582 7.566164 -5.011983 -15.706836 14.716066 
-5.172525 10.624640 42.143471 81.100342 9.669881 34.912441 31.363789 -5.027277 -16.712965 -1.759734 0.019437 -8.378906 -2.852370 8.979827 -0.109926 -5.761540 -10.984380 50.850483 -1.662201 -18.156925 0.428742 -28.203482 -16.046722 3.614984 -145.671036 5.000000 45.000000 -9.802829 6.489507 9.350823 -3.647770 10.270241 -0.481244 26.991343 -9.047232 -2.006863 150.000000 -5.000000 45.000000 -4.023845 -30.000000 -2.321854 -38.637592 39.388248 8.019370 136.979279 3.655054 -3.228117 0.162087 0.148946 -12.152127 22.193216 -18.217987 7.475607 27.494251 9.973431 6.952345 -4.901675 -15.621243 14.700393 
-5.180289 10.572971 42.133793 81.268463 9.881779 34.697998 31.391455 -5.455290 -16.768015 -1.692196 0.126335 -8.388680 -1.771722 9.370284 0.061568 -4.894615 -10.942585 51.005409 -1.150663 -18.413841 0.297456 -28.174965 -15.386673 3.288385 -145.890060 5.000000 45.000000 -9.601930 6.542518 8.921504 -3.492110 10.435755 -0.479205 26.911283 -9.466337 -2.068020 150.000000 -5.000000 45.000000 -4.390320 -30.000000 -3.099584 -37.606018 39.128868 9.974467 137.844025 3.635164 -3.116477 0.724003 -0.295612 -13.126101 22.363676 -18.895847 7.889728 25.673555 9.970762 6.336066 -4.719226 -15.561752 14.708748 
-5.188040 10.521307 42.124100 81.444832 10.094518 34.484051 31.428364 -5.886928 -16.814547 -1.625700 0.242945 -8.408234 -0.678670 9.760594 0.233113 -4.015774 -10.906879 51.160320 -0.637588 -18.659918 0.164811 -28.147161 -14.731045 2.954094 -146.077591 5.000000 45.000000 -9.410978 6.602014 8.502377 -3.345643 10.601310 -0.466913 26.840912 -9.895286 -2.129076 0.000000 -5.000000 -45.000000 -4.759678 -30.000000 -3.891024 -36.578873 38.832970 11.926287 138.738510 3.635442 -2.979128 1.261155 -0.780767 -14.097070 22.523350 -19.582211 8.272454 23.854136 9.974503 5.733587 -4.585864 -15.471593 14.717257 
-5.176067 10.473889 42.098919 81.590546 10.321071 34.162220 31.486681 -6.295860 -16.788975 -1.567722 0.349864 -8.349683 0.642181 10.149650 0.464922 -2.876512 -10.847702 51.360054 -0.112739 -18.924389 0.022263 -28.257423 -14.025932 2.651112 -146.469574 5.000000 45.000000 -9.044369 6.665483 8.078917 -3.130750 10.717847 -0.438608 26.546404 -10.283486 -2.164273 0.000000 -5.000000 -45.000000 -4.976607 -30.000000 -4.810211 -35.424541 38.555645 14.147110 139.357819 3.596107 -2.912286 1.770185 -1.316165 -15.047667 22.614079 -20.278034 8.718985 22.118177 9.981220 5.190970 -4.338458 -15.335496 14.721515 
-5.144363 10.430718 42.058239 81.716476 10.554858 33.721230 31.555904 -6.666498 -16.704296 -1.508266 0.447115 -8.222792 2.205567 10.559403 0.774840 -1.472770 -10.773461 51.597141 0.424147 -19.207123 -0.127721 -28.517431 -13.276824 2.391935 -147.047592 5.000000 45.000000 -8.513254 6.729059 7.655017 -2.867788 10.775707 -0.412822 26.057316 -10.640925 -2.192715 0.000000 -5.000000 -45.000000 -5.044211 -30.000000 -5.857072 -34.177567 38.247524 16.633636 139.763535 3.547126 -2.817730 2.226384 -1.930316 -15.917662 22.660275 -21.017906 9.155277 20.490892 9.983220 4.673352 -4.088518 -15.051233 14.757443 
-5.112656 10.387549 42.017548 81.844643 10.798019 33.280788 31.634594 -7.052606 -16.606218 -1.447674 0.534665 -8.115451 3.773214 10.949380 1.089591 -0.058871 -10.699228 51.836056 0.952484 -19.478767 -0.279799 -28.769150 -12.530630 2.122008 -147.583740 5.000000 45.000000 -7.984869 6.791888 7.233596 -2.595199 10.833604 -0.387526 25.548584 -10.988579 -2.201936 0.000000 -5.000000 -45.000000 -5.117402 -30.000000 -6.903687 -32.947704 37.906139 19.100708 140.159485 3.472868 -2.745158 2.704846 -2.502616 -16.752653 22.682312 -21.742645 9.600275 18.882061 9.984341 4.176618 -3.783886 -14.841333 14.785503 
